<svg id="visual" viewBox="0 0 960 540" width="960" height="540" xmlns="http://www.w3.org/2000/svg" xmlns:xlink="http://www.w3.org/1999/xlink" version="1.1"><path d="M844 540L882 540L882 491L844 491L844 442L825 442L825 393L873 393L873 344L805 344L805 295L853 295L853 245L863 245L863 196L748 196L748 147L853 147L853 98L892 98L892 49L796 49L796 0L960 0L960 49L960 49L960 98L960 98L960 147L960 147L960 196L960 196L960 245L960 245L960 295L960 295L960 344L960 344L960 393L960 393L960 442L960 442L960 491L960 491L960 540L960 540Z" fill="#001122"></path><path d="M441 540L661 540L661 491L421 491L421 442L671 442L671 393L527 393L527 344L613 344L613 295L700 295L700 245L527 245L527 196L393 196L393 147L393 147L393 98L661 98L661 49L498 49L498 0L797 0L797 49L893 49L893 98L854 98L854 147L749 147L749 196L864 196L864 245L854 245L854 295L806 295L806 344L874 344L874 393L826 393L826 442L845 442L845 491L883 491L883 540L845 540Z" fill="#302b4f"></path><path d="M258 540L489 540L489 491L249 491L249 442L421 442L421 393L412 393L412 344L402 344L402 295L441 295L441 245L354 245L354 196L249 196L249 147L277 147L277 98L393 98L393 49L335 49L335 0L499 0L499 49L662 49L662 98L394 98L394 147L394 147L394 196L528 196L528 245L701 245L701 295L614 295L614 344L528 344L528 393L672 393L672 442L422 442L422 491L662 491L662 540L442 540Z" fill="#753d6e"></path><path d="M133 540L354 540L354 491L181 491L181 442L297 442L297 393L268 393L268 344L277 344L277 295L306 295L306 245L277 245L277 196L172 196L172 147L191 147L191 98L249 98L249 49L210 49L210 0L336 0L336 49L394 49L394 98L278 98L278 147L250 147L250 196L355 196L355 245L442 245L442 295L403 295L403 344L413 344L413 393L422 393L422 442L250 442L250 491L490 491L490 540L259 540Z" fill="#be5076"></path><path d="M0 540L0 540L0 491L0 491L0 442L0 442L0 393L0 393L0 344L0 344L0 295L0 295L0 245L0 245L0 196L0 196L0 147L0 147L0 98L0 98L0 49L0 49L0 0L211 0L211 49L250 49L250 98L192 98L192 147L173 147L173 196L278 196L278 245L307 245L307 295L278 295L278 344L269 344L269 393L298 393L298 442L182 442L182 491L355 491L355 540L134 540Z" fill="#fa7268"></path></svg>